<?xml version="1.0" standalone="no"?><!DOCTYPE svg PUBLIC "-//W3C//DTD SVG 1.1//EN" "http://www.w3.org/Graphics/SVG/1.1/DTD/svg11.dtd"><svg t="1533992012002" class="icon" style="" viewBox="0 0 1024 1024" version="1.1" xmlns="http://www.w3.org/2000/svg" p-id="7830" xmlns:xlink="http://www.w3.org/1999/xlink" width="64" height="64"><defs><style type="text/css"></style></defs><path d="M 969.124 463.731 L 560.269 54.876 c -12.8932 -12.8932 -30.0487 -19.9259 -48.2697 -19.9259 c -18.221 0 -35.3765 7.13923 -48.2697 19.9259 L 54.876 463.731 c -12.8932 12.8932 -19.9259 30.0487 -19.9259 48.2697 c 0 18.221 7.13923 35.3765 19.9259 48.2697 L 463.731 969.124 c 13.3194 13.3194 30.7946 19.9259 48.2697 19.9259 s 34.9503 -6.60645 48.2697 -19.9259 L 969.124 560.269 c 26.639 -26.639 26.639 -69.9005 0 -96.5395 Z M 512 920.961 L 103.146 512 L 379.871 235.275 l 62.7613 62.7613 c -2.02456 6.71301 -3.09012 13.7457 -3.09012 21.098 c 0 27.7045 15.5572 51.786 38.3601 63.9334 v 269.586 c -22.8029 12.1473 -38.3601 36.229 -38.3601 63.9334 c 0 40.0649 32.3929 72.4579 72.4579 72.4579 s 72.4579 -32.3929 72.4579 -72.4579 c 0 -27.7045 -15.5572 -51.786 -38.3601 -63.9334 V 401.502 l 95.5805 95.5805 c -1.918 6.39334 -2.87701 13.2129 -2.87701 20.2456 c 0 40.0649 32.3929 72.4579 72.4579 72.4579 c 7.03267 0 13.8523 -1.06556 20.2456 -2.87701 l 0.319667 0.319667 l 0.639334 -0.639334 c 29.6225 -9.05723 51.1467 -36.6552 51.1467 -69.2612 c 0 -40.0649 -32.3929 -72.4579 -72.4579 -72.4579 c -7.67201 0 -15.0243 1.17211 -21.9505 3.40979 L 581.368 340.232 c 2.02456 -6.71301 3.09012 -13.7457 3.09012 -21.098 c 0 -40.0649 -32.3929 -72.4579 -72.4579 -72.4579 c -7.35234 0 -14.385 1.06556 -21.098 3.09012 L 428.14 187.005 l 83.8593 -83.8593 L 920.854 512 L 512 920.961 Z" fill="#999999" p-id="7831"></path></svg>