<?xml version="1.0" standalone="no"?><!DOCTYPE svg PUBLIC "-//W3C//DTD SVG 1.1//EN" "http://www.w3.org/Graphics/SVG/1.1/DTD/svg11.dtd"><svg t="1533994209887" class="icon" style="" viewBox="0 0 1024 1024" version="1.1" xmlns="http://www.w3.org/2000/svg" p-id="66265" xmlns:xlink="http://www.w3.org/1999/xlink" width="64" height="64"><defs><style type="text/css"></style></defs><path d="M517.472 598.4c-15.392 7.072-32.256 16.288-66.016 34.816-12.8 7.2-26.176 14.4-38.624 21.184-0.864-0.864-1.76-1.952-2.624-2.848-66.784-71.36-190.304-121.76-185.056-217.6 1.952-34.912 13.952-126.56 237.216-237.856 183.744-90.56 329.952-65.472 355.2-9.824 36.288 79.328-78.368 226.944-268.128 248.352a143.008 143.008 0 0 1-120.032-30.336c-10.048-10.912-11.552-11.552-15.264-9.376-6.112 3.2-2.176 13.088 0 18.752a112 112 0 0 0 68.512 53.888 364.8 364.8 0 0 0 222.592-22.048c115.008-44.512 204.8-168.256 178.496-272-26.4-105.184-200.992-139.872-366.176-81.184a832 832 0 0 0-281.28 161.504c-91.008 85.12-105.408 159.104-99.52 190.08 21.184 109.984 172.8 181.568 233.6 234.592-3.2 1.76-5.888 3.2-8.288 4.576-30.336 15.072-145.984 75.52-174.816 139.456-32.736 72.448 5.248 124.384 30.336 131.36a186.624 186.624 0 0 0 200.992-81.408 201.6 201.6 0 0 0 17.888-185.6 160.96 160.96 0 0 1 22.912-15.264c15.488-9.152 30.24-18.176 43.328-25.152a335.2 335.2 0 0 1 143.2-31.648c103.872 12.224 124.384 77.024 120.448 104.32a69.024 69.024 0 0 1-32.96 46.688c-7.2 4.576-9.6 6.112-8.96 9.376 0.864 4.8 4.352 4.576 10.464 3.712a81.12 81.12 0 0 0 56.512-72.224c3.2-64-57.824-134.208-165.856-133.568a248.096 248.096 0 0 0-94.272 18.784q-7.2 2.976-13.984 6.4z m-154.4 250.848c-34.496 37.536-82.496 51.712-103.232 39.712-22.4-12.8-13.536-68.32 28.8-108.032a549.76 549.76 0 0 1 80.96-60.448c5.024-3.2 12.448-7.424 21.376-12.8l2.4-1.312 5.248-3.2a149.056 149.056 0 0 1-35.552 146.08z" fill="#999999" p-id="66266"></path></svg>