<?xml version="1.0" standalone="no"?><!DOCTYPE svg PUBLIC "-//W3C//DTD SVG 1.1//EN" "http://www.w3.org/Graphics/SVG/1.1/DTD/svg11.dtd"><svg t="1533994651451" class="icon" style="" viewBox="0 0 1024 1024" version="1.1" xmlns="http://www.w3.org/2000/svg" p-id="5994" xmlns:xlink="http://www.w3.org/1999/xlink" width="64" height="64"><defs><style type="text/css"></style></defs><path d="M691.797333 370.773333l286.506667-71.637333A513.152 513.152 0 0 1 1024 510.805333C1024 792.32 792.277333 1024 510.634667 1024c-12.885333 0-25.813333-0.469333-38.698667-1.450667l209.28-356.138666c15.189333-16.042667 27.946667-34.261333 37.589333-54.229334a232.576 232.576 0 0 0-1.834666-202.581333 219.989333 219.989333 0 0 0-25.173334-38.826667z m-138.24 365.866667l-90.496 285.098667C202.154667 996.053333 0 773.973333 0 511.018667 0 409.258667 30.250667 309.76 86.954667 225.237333l206.250666 357.418667c7.68 22.997333 47.744 110.122667 130.858667 141.952 42.581333 16.298667 87.082667 20.522667 129.493333 12.032zM510.848 325.12c-85.589333 0.810667-165.461333 65.877333-182.656 149.845333a191.061333 191.061333 0 0 0 52.778667 172.032c51.797333 50.602667 133.973333 67.328 201.984 39.552 60.074667-24.576 105.386667-82.218667 114.816-146.389333 11.605333-79.189333-33.621333-163.498667-106.453334-197.504a188.288 188.288 0 0 0-80.469333-17.536zM300.629333 425.045333L96.384 211.754667A513.834667 513.834667 0 0 1 511.872 0c194.56 0 373.077333 110.592 459.690667 284.8H535.808c-77.269333-5.333333-140.288 22.186667-181.973333 61.994667a228.053333 228.053333 0 0 0-53.205334 78.250666z" fill="#999999" p-id="5995"></path></svg>